<svg id="Layer_1" data-name="Layer 1" xmlns="http://www.w3.org/2000/svg" viewBox="0 0 305.84 70.83"><path d="M266.17,53.15a1.24,1.24,0,0,0,1.05.68c.74.07,1.48.11,2.21.11,1.13,0,2.26-.11,3.39-.09,1.45,0,1.94.78,1.51,2.18a7.38,7.38,0,0,1-2.92,3.87,16.46,16.46,0,0,1-5.61,2.54c-2.65.66-5.33,1.2-8,1.75-3,.62-6.06.8-9.09,1.22a28.84,28.84,0,0,0-4.78,1.11,7.07,7.07,0,0,0-4.57,4,39.17,39.17,0,0,1-2.41,4.52A11,11,0,0,1,235,77.35a1.58,1.58,0,0,1-2.36,0c.08-.19.15-.4.25-.59a142.31,142.31,0,0,1,18.25-26.85,91.93,91.93,0,0,1,24.67-20.2,81.32,81.32,0,0,1,20.82-7.83q4.05-.95,8.13-1.68a9,9,0,0,1,4.32.13,2.31,2.31,0,0,1,1.71,3.22,4.12,4.12,0,0,1-2.12,2.65A35.9,35.9,0,0,1,305,27.76c-.84.32-1.72.53-2.57.82-.39.13-.75.32-1.33.57l1,.56c.6.37,1.37.65,1.38,1.48s-.76,1.27-1.42,1.55a31.41,31.41,0,0,1-4.44,1.6c-3.57.86-7.17,1.57-10.75,2.36a12.29,12.29,0,0,0-3,.79,1.47,1.47,0,0,0,1,1.1,28.36,28.36,0,0,0,2.84.9c1,.25,2,.37,2.92.64,1.6.45,1.84,1.3.69,2.51A14.77,14.77,0,0,1,283.93,47c-3,.71-6.08,1.39-9.11,2.15-1.78.44-3.54,1-5.27,1.56a12.37,12.37,0,0,0-2.31,1.2A2.36,2.36,0,0,0,266.17,53.15ZM252.94,35.93a2,2,0,0,0,2.53.87,3.86,3.86,0,0,0,1.2-.6A20.19,20.19,0,0,0,259,34.29c1.24-1.26,2.43-2.58,3.6-3.91,1.84-2.08,3.61-4.22,5.47-6.28a22.45,22.45,0,0,1,2.55-2.21,6.35,6.35,0,0,1,1.25-.59v1.32c0,1.46.57,2,2,1.85a3.82,3.82,0,0,0,.57-.11,15.34,15.34,0,0,0,4.4-1.94c2.73-1.67,5.4-3.41,8.1-5.11,1.07-.67,2.14-1.33,3.22-2a5.67,5.67,0,0,1,.92-.36l.11.17c-.19.22-.38.42-.55.65a9.13,9.13,0,0,0-.91,1.35,1.5,1.5,0,0,0,.87,2.27,3.25,3.25,0,0,0,.93.23,8.09,8.09,0,0,0,4.34-.66,13.07,13.07,0,0,1,6.55-.8c1.63.15,3.28.25,4.92.26a13.64,13.64,0,0,0,2.35-.36,2.18,2.18,0,0,0-.9-2.13,5.66,5.66,0,0,0-1.81-.85,12.32,12.32,0,0,0-5.47.09c-2.2.45-4.37,1.07-6.56,1.62l-.9.2c0-.11,0-.15,0-.17a2.1,2.1,0,0,1,.24-.41,4.86,4.86,0,0,0,1-3.36,1.49,1.49,0,0,0-1-1.41,5.49,5.49,0,0,0-5.11.07,19.59,19.59,0,0,0-3.32,2.14c-1.26,1-2.39,2.17-3.57,3.27-1.52,1.39-3,2.81-4.57,4.17a10.86,10.86,0,0,1-1.7,1.07,1.35,1.35,0,0,1-.24-1.47c.25-.55.57-1.08.83-1.63a6.16,6.16,0,0,0,.57-1.51c.14-.91-.09-1.22-1-1.53a4.43,4.43,0,0,0-2.67-.06,13.53,13.53,0,0,0-6.79,4.23A36.39,36.39,0,0,0,264,24.17c-1.49,2.26-2.87,4.59-4.37,6.85a23.61,23.61,0,0,1-2.18,2.7A8.9,8.9,0,0,1,256,34.8c-.21-.42-.34-.71-.49-1a12.23,12.23,0,0,0-.65-1.18c-.92-1.31-2.06-1.52-3.3-.5a11,11,0,0,0-2,2.12,32,32,0,0,0-2.29,3.81,118.82,118.82,0,0,0-7.92,21c-.23.81-.05,1,.77,1.16a1.57,1.57,0,0,0,1.48-.52,5.4,5.4,0,0,0,.84-1.29,23.87,23.87,0,0,0,1-2.93c.39-1.57.54-3.2,1-4.72a52.66,52.66,0,0,1,7.07-14.56c.23-.32.47-.62.8-1Z" transform="translate(-9.16 -8.78)" style="fill:#eb7324;fill-rule:evenodd"/><path d="M45.36,44.16A27.85,27.85,0,0,1,44.3,52.5,14.37,14.37,0,0,1,33.24,63a25.23,25.23,0,0,1-12.45-.14A13.92,13.92,0,0,1,10.27,52.46a29.9,29.9,0,0,1,0-16.25c1.83-6.34,6.2-9.92,12.63-11a24.92,24.92,0,0,1,10.46.28C39.33,26.91,43,30.7,44.51,36.61A28.32,28.32,0,0,1,45.36,44.16Zm-27.31.59c.08,1.11.16,2.69.34,4.26a12.07,12.07,0,0,0,1.34,4.42,6.28,6.28,0,0,0,4,3.24,12.86,12.86,0,0,0,6,.22,7,7,0,0,0,5.27-4.13,15.88,15.88,0,0,0,1-3.31,30.22,30.22,0,0,0,.17-9.54,13.86,13.86,0,0,0-1.16-4.17,6.74,6.74,0,0,0-4.57-4,12.64,12.64,0,0,0-5.37-.21,6.94,6.94,0,0,0-5.25,3.56A15,15,0,0,0,19,37.31,25.29,25.29,0,0,0,18.05,44.75Z" transform="translate(-9.16 -8.78)" style="fill:#fff;fill-rule:evenodd"/><path d="M107,36.51,98.73,47.76l9.62,14.66c-.43,0-.68.08-.93.08-2.32,0-4.64,0-7,0a1.36,1.36,0,0,1-1.31-.76c-2.27-3.6-4.57-7.18-6.87-10.77a2.85,2.85,0,0,0-.84-.92c0,.32-.05.65-.06,1V61.31c0,.35,0,.7,0,1a48.78,48.78,0,0,1-7.57.07c-.22-.79-.22-36.51,0-37.36h7.52c0,.41.08.81.08,1.22v20c.51-.07.63-.44.81-.7,2-2.76,4-5.51,6-8.3a1.69,1.69,0,0,1,1.6-.82c2,0,4.06,0,6.1,0C106.22,36.45,106.53,36.48,107,36.51Z" transform="translate(-9.16 -8.78)" style="fill:#fff;fill-rule:evenodd"/><path d="M76.62,62.46H69.26L68.2,60.17l-1,.69a12.9,12.9,0,0,1-3.48,2.06,5.28,5.28,0,0,1-1.21.32,16.12,16.12,0,0,1-6.86-.77,6.42,6.42,0,0,1-4.47-6.25,13.28,13.28,0,0,1,.19-2.6A7.72,7.72,0,0,1,55.48,48,16.29,16.29,0,0,1,62.3,46.1C63.88,46,65.46,46,67,45.91l.69-.06a17.36,17.36,0,0,0-.13-2.32,2.38,2.38,0,0,0-2.63-2,26.19,26.19,0,0,0-3.75.28,23.6,23.6,0,0,0-5.65,1.63c-.23.09-.48.16-.8.26l-2.58-6.13a15.35,15.35,0,0,1,3.48-1,50.78,50.78,0,0,1,9-1,14.61,14.61,0,0,1,5.7.88,7.37,7.37,0,0,1,5.1,7.23c0,3,.06,6,0,9a31.46,31.46,0,0,0,.68,6.91C76.36,60.57,76.47,61.46,76.62,62.46Zm-8.83-11c-.57,0-1,0-1.33,0a16.79,16.79,0,0,0-2.13.08,20.72,20.72,0,0,0-3,.7,2.9,2.9,0,0,0-2,2c-.52,1.88,0,2.65,1.52,3a5.28,5.28,0,0,0,5.17-1c.46-.41.92-.82,1.34-1.26a1.19,1.19,0,0,0,.38-.65C67.81,53.41,67.79,52.48,67.79,51.42Z" transform="translate(-9.16 -8.78)" style="fill:#fff;fill-rule:evenodd"/><path d="M217,61.28a15.15,15.15,0,0,1-4,1.34,32.36,32.36,0,0,1-8.56.64,12.26,12.26,0,0,1-10.94-8.34,16.79,16.79,0,0,1,.51-12.1,11,11,0,0,1,8.78-6.93,18.42,18.42,0,0,1,8,.42A9.32,9.32,0,0,1,217,41.85,20.09,20.09,0,0,1,218.46,48c.13,1.38.15,2.77.22,4.15a5.41,5.41,0,0,1-.05.58H200.68a5.41,5.41,0,0,0,2.24,3.91,6.82,6.82,0,0,0,4.73,1,21.69,21.69,0,0,0,5.91-1.72l.9-.39C215.37,57.4,216.11,59.31,217,61.28ZM210.89,47c-.14-3.68-2.31-5.72-5.73-5.45A4.77,4.77,0,0,0,200.84,47,74.9,74.9,0,0,0,210.89,47Z" transform="translate(-9.16 -8.78)" style="fill:#fff;fill-rule:evenodd"/><path d="M139.82,36.52h7.59c0,.44.09.84.09,1.25,0,5,0,10,0,15,0,.68,0,1.36.06,2A2.9,2.9,0,0,0,152,57.2a5,5,0,0,0,1.58-1.39,30,30,0,0,0,1.92-3.24,2.47,2.47,0,0,0,.14-1.13q0-6.87,0-13.74v-1a37.32,37.32,0,0,1,7.65-.07c0,.37.08.78.08,1.19,0,5.87,0,11.74,0,17.61a25.92,25.92,0,0,0,.59,6.34,5.32,5.32,0,0,1,.06.56,36.3,36.3,0,0,1-7.08.1c-.36-.95-.74-1.93-1.17-3.08-.42.43-.74.72-1,1a8.63,8.63,0,0,1-2.84,2.29,6.72,6.72,0,0,1-2.28.71,10.69,10.69,0,0,1-5.12-.77A7.18,7.18,0,0,1,140.17,57a22.61,22.61,0,0,1-.38-3.84c0-5.23,0-10.46,0-15.69C139.77,37.17,139.8,36.91,139.82,36.52Z" transform="translate(-9.16 -8.78)" style="fill:#fff;fill-rule:evenodd"/><path d="M132.89,37.25c-.87,2.08-1.7,4.06-2.56,6.13l-1-.38c-.8-.33-1.59-.7-2.41-1a10.28,10.28,0,0,0-5.33-.4,1.84,1.84,0,0,0-1.72,1.34,1.59,1.59,0,0,0,.87,1.87,20.63,20.63,0,0,0,2.58,1.07c1.22.43,2.47.76,3.68,1.19a11.72,11.72,0,0,1,4.59,2.78,6.73,6.73,0,0,1,2,4.77,14.12,14.12,0,0,1-.13,2.6,6.35,6.35,0,0,1-3.37,4.48,13.64,13.64,0,0,1-5.07,1.5c-4.67.64-9.15-.36-13.74-1.64.75-2.15,1.7-4.13,2.55-6.24.29.08.53.11.76.2l3.23,1.3a10.86,10.86,0,0,0,6.35.51,2.61,2.61,0,0,0,1-.41,1.42,1.42,0,0,0-.15-2.46,20.15,20.15,0,0,0-2.65-.9c-1.29-.4-2.61-.73-3.88-1.17a9.79,9.79,0,0,1-5.37-4.07,7.28,7.28,0,0,1-1.12-3.55,15.67,15.67,0,0,1,.07-3,6.22,6.22,0,0,1,3.37-4.59,13.07,13.07,0,0,1,4.7-1.37A30,30,0,0,1,132.14,37,7.7,7.7,0,0,1,132.89,37.25Z" transform="translate(-9.16 -8.78)" style="fill:#fff;fill-rule:evenodd"/><path d="M170.9,62.44V61.2c0-5.58,0-11.16,0-16.74a30.8,30.8,0,0,0-.62-7.11,7.27,7.27,0,0,1-.1-.83c.35,0,.62-.07.9-.07,1.78,0,3.55,0,5.32,0,.87,0,.87,0,1.15.84s.42,1.36.64,2c.07.2.19.38.32.65.24-.3.41-.53.58-.75.3-.38.58-.78.89-1.14,1.5-1.73,3.28-2.82,5.68-2.44l3.41.52a36,36,0,0,1-2.38,6.06c-.92-.25-1.79-.56-2.69-.73a3.1,3.1,0,0,0-2.9,1,10.6,10.6,0,0,0-2,3.19,6.43,6.43,0,0,0-.57,2.81c0,4.26,0,8.51,0,12.77v1.21Z" transform="translate(-9.16 -8.78)" style="fill:#fff;fill-rule:evenodd"/><path d="M80.24,67.85v4.47h5.3v1.09h-5.3v5.88H78.82V66.73h7v1.12Z" transform="translate(-9.16 -8.78)" style="fill:#fff"/><path d="M88.34,68.24V66.73h1.39v1.51Zm.07,11.05V70.42h1.27v8.87Z" transform="translate(-9.16 -8.78)" style="fill:#fff"/><path d="M98.08,79.29V73.77c0-1.35-.23-2.58-2-2.58a2.72,2.72,0,0,0-2.29,1.89v6.21H92.57v-7a18.44,18.44,0,0,0-.18-1.88H93.5l.27,1.32A3.34,3.34,0,0,1,96.3,70.2c2.36,0,3,1.46,3,3.5v5.59Z" transform="translate(-9.16 -8.78)" style="fill:#fff"/><path d="M107.81,79.29c0-.14-.31-.86-.33-1.05A3.1,3.1,0,0,1,105,79.5c-1.78,0-3.22-.76-3.22-2.54s1-3.07,4.76-3.07h.85v-.68c0-1.18-.41-2-1.77-2a6.62,6.62,0,0,0-3,.78l-.45-1.09a9.59,9.59,0,0,1,3.49-.68c1.83,0,3,.91,3,2.86v3.51c0,.7.16,1.63.27,2.72Zm-.41-4.45h-.6c-2.8,0-3.69.64-3.69,2.08,0,1,.74,1.59,2,1.59a2.54,2.54,0,0,0,2.27-1.18Z" transform="translate(-9.16 -8.78)" style="fill:#fff"/><path d="M117.18,79.29V73.77c0-1.35-.23-2.58-2-2.58a2.72,2.72,0,0,0-2.29,1.89v6.21h-1.26v-7c0-.74-.12-1.19-.17-1.88h1.1l.27,1.32a3.34,3.34,0,0,1,2.53-1.54c2.37,0,3,1.46,3,3.5v5.59Z" transform="translate(-9.16 -8.78)" style="fill:#fff"/><path d="M124.79,79.5c-2.71,0-3.92-1.86-3.92-4.58,0-2.87,1.19-4.72,4-4.72a9.46,9.46,0,0,1,2.74.58l-.45,1.07a6.12,6.12,0,0,0-2.31-.66c-2,0-2.64,1.46-2.64,3.73,0,2.08.68,3.59,2.62,3.59a6.09,6.09,0,0,0,2.37-.66l.45,1.07A8.72,8.72,0,0,1,124.79,79.5Z" transform="translate(-9.16 -8.78)" style="fill:#fff"/><path d="M129.84,68.24V66.73h1.4v1.51Zm.08,11.05V70.42h1.26v8.87Z" transform="translate(-9.16 -8.78)" style="fill:#fff"/><path d="M139.66,79.29c0-.14-.31-.86-.33-1.05a3.08,3.08,0,0,1-2.48,1.26c-1.79,0-3.22-.76-3.22-2.54s1-3.07,4.75-3.07h.86v-.68c0-1.18-.41-2-1.77-2a6.7,6.7,0,0,0-3,.78L134,70.88a9.65,9.65,0,0,1,3.5-.68c1.82,0,3,.91,3,2.86v3.51c0,.7.15,1.63.27,2.72Zm-.41-4.45h-.6c-2.79,0-3.68.64-3.68,2.08,0,1,.73,1.59,2,1.59a2.53,2.53,0,0,0,2.27-1.18Z" transform="translate(-9.16 -8.78)" style="fill:#fff"/><path d="M143.53,79.29V66.53h1.26V79.29Z" transform="translate(-9.16 -8.78)" style="fill:#fff"/><path d="M155.89,79.62a13.59,13.59,0,0,1-3.38-.57l.49-1.24a8.28,8.28,0,0,0,2.91.7c1.5,0,3.11-.5,3.11-2.45,0-1.68-1.56-2.17-3.17-2.75s-3.34-1.32-3.34-3.51c0-2.37,2.12-3.29,4.43-3.29A10.38,10.38,0,0,1,160,67l-.48,1.24a6,6,0,0,0-2.64-.64c-1.79,0-2.95.7-2.95,2.18,0,1.24,1.14,1.72,2.46,2.21,1.87.66,4,1.32,4,4S158.36,79.62,155.89,79.62Z" transform="translate(-9.16 -8.78)" style="fill:#fff"/><path d="M164.28,75.29c.06,1.88.74,3.24,2.58,3.24a5.71,5.71,0,0,0,2.76-.76l.38,1a7.72,7.72,0,0,1-3.3.68c-2.67,0-3.78-2.1-3.78-4.56,0-2.06.81-4.74,3.71-4.74s3.76,2.08,3.76,5.09Zm2.37-4.1c-1.38,0-2.29,1.07-2.39,3.11h4.87C169.09,72.18,168.31,71.19,166.65,71.19Z" transform="translate(-9.16 -8.78)" style="fill:#fff"/><path d="M177.46,71.7a2.33,2.33,0,0,0-1.4-.51c-1.07,0-1.67,1.77-1.94,2.33v5.77h-1.26V72.4a16.11,16.11,0,0,0-.18-2h1.11l.27,1.8c.33-.64,1.18-2,2.25-2a3,3,0,0,1,1.59.43Z" transform="translate(-9.16 -8.78)" style="fill:#fff"/><path d="M183.63,79.29h-1.11l-3.43-8.87h1.36l2.68,7.22,2.62-7.22h1.3Z" transform="translate(-9.16 -8.78)" style="fill:#fff"/><path d="M189.28,68.24V66.73h1.4v1.51Zm.08,11.05V70.42h1.26v8.87Z" transform="translate(-9.16 -8.78)" style="fill:#fff"/><path d="M197,79.5c-2.72,0-3.92-1.86-3.92-4.58,0-2.87,1.18-4.72,4-4.72a9.46,9.46,0,0,1,2.74.58l-.44,1.07a6.12,6.12,0,0,0-2.31-.66c-2,0-2.64,1.46-2.64,3.73,0,2.08.68,3.59,2.62,3.59a6,6,0,0,0,2.36-.66l.45,1.07A8.66,8.66,0,0,1,197,79.5Z" transform="translate(-9.16 -8.78)" style="fill:#fff"/><path d="M203,75.29c0,1.88.73,3.24,2.58,3.24a5.65,5.65,0,0,0,2.75-.76l.39,1a7.72,7.72,0,0,1-3.3.68c-2.68,0-3.78-2.1-3.78-4.56,0-2.06.81-4.74,3.7-4.74s3.77,2.08,3.77,5.09Zm2.36-4.1c-1.37,0-2.29,1.07-2.38,3.11h4.87C207.8,72.18,207,71.19,205.35,71.19Z" transform="translate(-9.16 -8.78)" style="fill:#fff"/><path d="M214.09,79.5a8.12,8.12,0,0,1-3.05-.56l.45-1.07a5.76,5.76,0,0,0,2.64.64c1.26,0,1.92-.58,1.92-1.59s-1-1.26-2.08-1.61c-1.36-.45-2.89-1-2.89-2.6,0-1.89,1.63-2.51,3.26-2.51a7.37,7.37,0,0,1,2.76.6l-.45,1.07a4.53,4.53,0,0,0-2.29-.68c-1.11,0-1.94.39-1.94,1.46,0,.78.87,1.07,1.88,1.38,1.4.42,3.09.91,3.09,2.87S215.8,79.5,214.09,79.5Z" transform="translate(-9.16 -8.78)" style="fill:#fff"/><path d="M312.21,9.47l-.15,2.62h-.4c.07-1.09.15-2.16.22-3.23.47-.14.53-.12.68.3l.76,2.25c.22-.63.44-1.26.67-1.89l.12-.33c.16-.44.16-.44.69-.36.06,1.07.13,2.14.2,3.25h-.42c0-.89-.09-1.78-.14-2.76a3.48,3.48,0,0,0-.13.34l-.77,2.16c0,.11-.17.18-.26.27-.08-.1-.2-.18-.23-.29-.28-.77-.53-1.55-.79-2.33Z" transform="translate(-9.16 -8.78)" style="fill:#fff;fill-rule:evenodd"/><path d="M310.39,9.16v2.92H310V9.16h-1c0-.13,0-.21,0-.33h2.41v.33Z" transform="translate(-9.16 -8.78)" style="fill:#fff;fill-rule:evenodd"/></svg>